# xmcd
#
# Track frame offsets: 
#        150
#        10700
#        22563
#        34293
#        45660
#        53685
#        69248
#        82519
#        95710
#        108487
#
# Disc length: 1694 seconds
#
# Revision: 0
# Processed by: cddbd v1.5.1PL0 Copyright (c) Steve Scherf et al.
# Submitted via: ExactAudioCopy v0.95a5
#
DISCID=66069c0a
DTITLE=Onie Wheeler - John's been shuckin' my corn
DYEAR=1900
DGENRE=Country
TTITLE0=John's Been Shuckin' My Corn
TTITLE1=Shuckin' My Way To The Hall Of Fame
TTITLE2=Run 'em Off
TTITLE3=Onie's Bop
TTITLE4=Might As Well Hang My Britches Up
TTITLE5=Mother Prays Loud In Her Sleep
TTITLE6=I Saw Mother With God Last Night
TTITLE7=Mother Rang The Dinner Bell And Sang
TTITLE8=There's Heaven To Gain, Hell To Lose
TTITLE9=Go Home
EXTD=(c) I+B Records, London
EXTT0=
EXTT1=
EXTT2=
EXTT3=
EXTT4=
EXTT5=
EXTT6=
EXTT7=
EXTT8=
EXTT9=
PLAYORDER=
